<?xml version="1.0" encoding="utf-8"?>
<!-- Generator: Adobe Illustrator 26.2.1, SVG Export Plug-In . SVG Version: 6.00 Build 0)  -->
<svg version="1.1" id="Слой_1" xmlns="http://www.w3.org/2000/svg" xmlns:xlink="http://www.w3.org/1999/xlink" x="0px" y="0px"
	 viewBox="0 0 2834.65 2834.65" style="enable-background:new 0 0 2834.65 2834.65;" xml:space="preserve">
<style type="text/css">
	.st0{fill:#595955;}
</style>
<g>
	<path class="st0" d="M2353.81,478.39c-250.05-250.05-582.52-387.76-936.15-387.76c-353.63,0-686.09,137.71-936.15,387.76
		C231.46,728.45,93.75,1060.91,93.75,1414.54c0,353.63,137.71,686.09,387.76,936.15c250.05,250.05,582.52,387.76,936.15,387.76
		c353.63,0,686.09-137.71,936.15-387.76c250.05-250.05,387.76-582.52,387.76-936.15C2741.57,1060.91,2603.86,728.45,2353.81,478.39z
		 M702.57,2395.26c-302.36-221.07-499.17-578.31-499.17-980.72c0-669.55,544.72-1214.26,1214.26-1214.26
		c669.55,0,1214.26,544.72,1214.26,1214.26c0,402.4-196.81,759.65-499.17,980.72C1441,2912.78,702.57,2395.26,702.57,2395.26z"/>
</g>
<path class="st0" d="M2096.49,775.17c15.85-0.3,31.23,1.61,46.43,6.53c27,8.73,48.55,39.08,47.98,67.15
	c-0.42,20.83-3.16,41.61-4.88,62.42c-0.89,10.82-1.53,21.67-2.76,32.46c-2.4,21.15-5.14,42.25-7.71,63.38
	c-2.69,22.02-5.06,44.07-8.1,66.04c-2.96,21.44-6.84,42.75-9.86,64.18c-3.89,27.53-7.06,55.16-11.04,82.68
	c-2.91,20.15-6.79,40.15-9.92,60.27c-3.01,19.29-5.43,38.67-8.44,57.96c-4.89,31.3-10.15,62.54-15.05,93.84
	c-2.95,18.88-5.33,37.84-8.3,56.71c-3.72,23.62-7.76,47.18-11.71,70.76c-4.88,29.12-9.77,58.24-14.74,87.34
	c-4.97,29.13-10.23,58.21-15.04,87.37c-5.44,32.95-10.45,65.96-15.8,98.93c-3.47,21.39-7.29,42.73-10.85,64.11
	c-4.25,25.54-8.17,51.13-12.62,76.63c-3.73,21.35-8.17,42.57-11.99,63.91c-5.06,28.25-10.01,56.52-14.67,84.84
	c-4.06,24.65-8.8,49.04-23.01,70.28c-13.58,20.3-31.36,36.07-52.76,47.84c-26.21,14.41-54.56,18.94-83.76,15.82
	c-20.9-2.24-40.56-9.43-58.22-21.74c-30.39-21.18-61.15-41.82-91.81-62.61c-45.52-30.88-91.05-61.74-136.63-92.53
	c-56.05-37.87-112.16-75.65-168.23-113.49c-25.32-17.09-50.71-34.06-75.86-51.38c-32.74-22.55-65.52-45.07-97.82-68.25
	c-17.54-12.59-26.64-30.86-30.07-51.97c-4.46-27.44,3.24-52.37,16-76.22c12.9-24.12,30.1-44.66,50.16-63.26
	c26.29-24.37,51.44-49.97,77.52-74.58c15.84-14.94,32.62-28.87,48.76-43.49c14.56-13.19,28.72-26.83,43.26-40.04
	c13.55-12.31,27.42-24.27,41.04-36.5c10.7-9.62,21.31-19.34,31.82-29.16c15.62-14.6,30.94-29.53,46.71-43.96
	c17.7-16.2,35.94-31.81,53.62-48.04c8.36-7.68,15.86-16.29,23.89-24.34c33.5-33.56,84.26-71.08,108.03-114.32
	c18.28-33.27,9.2-59.01-31.19-40.31c-31.46,14.56-60.03,34.1-88.81,53.18c-20,13.26-39.48,27.31-59.16,41.05
	c-21.42,14.96-42.84,29.92-64.21,44.95c-31.34,22.04-62.62,44.16-93.96,66.19c-23.88,16.79-47.6,33.82-71.76,50.2
	c-44.46,30.16-89.13,60-133.81,89.83c-26.88,17.94-53.63,36.09-81,53.27c-33.97,21.32-68.57,41.62-102.78,62.56
	c-74.51,45.6-147.65,57.02-234.38,41.27c-56.7-10.29-111.12-29.23-165.73-47c-25.65-8.35-50.25-19.96-75.24-30.31
	c-20.13-8.34-40.44-16.32-60.07-25.71c-17.33-8.29-33.86-18.26-47.37-32.4c-7.63-7.98-13.25-17.45-10.26-28.31
	c2.21-8.01,7.07-16.05,12.8-22.13c6.47-6.86,14.7-12.56,23.11-16.98c34.83-18.32,70.02-35.96,105.08-53.85
	c18.69-9.54,37.15-19.57,56.13-28.5c31.63-14.88,63.64-28.95,95.4-43.56c23.02-10.59,45.75-21.83,68.88-32.16
	c24.7-11.04,49.78-21.23,74.6-32.01c24.82-10.78,49.49-21.89,74.29-32.73c31.57-13.8,63.16-27.53,94.8-41.16
	c30.07-12.95,60.16-25.86,90.34-38.54c34.2-14.37,68.54-28.43,102.78-42.71c23.32-9.72,46.51-19.73,69.86-29.37
	c33.9-13.99,67.91-27.68,101.82-41.66c26.61-10.97,53.06-22.32,79.69-33.25c29.09-11.94,58.31-23.59,87.46-35.38
	c17.01-6.87,34.01-13.75,51.02-20.64c32.74-13.25,65.44-26.6,98.22-39.74c42.21-16.92,84.37-33.95,126.75-50.44
	c34.98-13.61,70.28-26.4,105.36-39.75c24.47-9.32,48.66-19.34,73.22-28.39C2025.65,783.78,2060.22,775.06,2096.49,775.17z"/>
</svg>
