<?xml version="1.0" encoding="utf-8"?>
<!-- Generator: Adobe Illustrator 26.2.1, SVG Export Plug-In . SVG Version: 6.00 Build 0)  -->
<svg version="1.1" id="Слой_1" xmlns="http://www.w3.org/2000/svg" xmlns:xlink="http://www.w3.org/1999/xlink" x="0px" y="0px"
	 viewBox="0 0 2834.65 2834.65" style="enable-background:new 0 0 2834.65 2834.65;" xml:space="preserve">
<style type="text/css">
	.st0{fill:#595955;}
</style>
<g>
	<path class="st0" d="M2353.81,478.39c-250.05-250.05-582.52-387.76-936.15-387.76c-353.63,0-686.09,137.71-936.15,387.76
		C231.46,728.45,93.75,1060.91,93.75,1414.54c0,353.63,137.71,686.09,387.76,936.15c250.05,250.05,582.52,387.76,936.15,387.76
		c353.63,0,686.09-137.71,936.15-387.76c250.05-250.05,387.76-582.52,387.76-936.15C2741.57,1060.91,2603.86,728.45,2353.81,478.39z
		 M702.57,2395.26c-302.36-221.07-499.17-578.31-499.17-980.72c0-669.55,544.72-1214.26,1214.26-1214.26
		c669.55,0,1214.26,544.72,1214.26,1214.26c0,402.4-196.81,759.65-499.17,980.72C1441,2912.78,702.57,2395.26,702.57,2395.26z"/>
</g>
<g id="zIaVaU.tif">
	<g>
		<path class="st0" d="M1534.45,1201.29c0-64.14,0.09-128.29-0.06-192.43c-0.04-15.33-1.02-30.64-6.6-45.21
			c-5.47-14.3-15.65-23.32-30.73-26.15c-7.09-1.33-14.38-2.21-21.59-2.22c-98.85-0.14-197.7-0.1-296.54-0.09
			c-2.42,0-4.85-0.11-7.26,0.08c-18.46,1.44-33.69,8.66-42.35,25.77c-8.51,16.83-5.16,32.93,5.21,47.88
			c4.59,6.62,9.44,13.11,14.67,19.23c36.61,42.77,52.01,92.91,52.03,148.46c0.02,90.77,0.03,181.54-0.03,272.31
			c-0.01,11.69,0.24,23.46-0.94,35.05c-0.97,9.51-3.12,19.08-6.12,28.16c-3.3,9.97-11.02,15.25-21.77,16.56
			c-11.01,1.34-20.73-1.56-30.02-6.93c-16.25-9.4-29.7-22.16-42.46-35.69c-28.89-30.64-53.39-64.67-76.12-99.99
			c-72.56-112.77-128.69-233.52-173.99-359.51c-5.72-15.91-11.68-31.78-18.55-47.21c-12.27-27.61-33.99-42.16-64.21-43.85
			c-3.62-0.2-7.26-0.31-10.88-0.32c-63.75-0.02-127.49-0.11-191.24,0.1c-8.82,0.03-17.76,0.89-26.44,2.49
			c-16.62,3.07-31.28,10.29-36.94,27.39c-3.21,9.69-5.08,20.7-4.03,30.74c1.91,18.35,5.54,36.65,10.03,54.58
			c18.76,74.96,47.47,146.34,79.79,216.31c62.45,135.2,140,261.48,227.02,382.1c52.96,73.41,114.47,138.72,186.58,193.63
			c102.99,78.43,216.74,131.56,347.08,144.06c41.43,3.97,83.06,4.27,124.18-3.52c12.09-2.29,24.1-6.68,35.23-12
			c15.27-7.31,23.2-20.87,25.18-37.53c1.14-9.58,1.77-19.28,1.8-28.92c0.16-57.29-0.04-114.57,0.2-171.86
			c0.04-9.61,0.86-19.37,2.64-28.81c3.79-20.07,14.46-28.58,34.83-30.56c24.68-2.4,47.05,4.25,68.48,15.65
			c24.32,12.95,46.36,29.22,67.72,46.47c54.17,43.75,101.83,94.13,148.64,145.41c23.38,25.61,46.96,51.08,71.51,75.54
			c22.68,22.6,50.5,33.24,83.12,32.69c49.21-0.83,98.44-0.15,147.66-0.25c18.15-0.04,36.31-0.25,54.45-0.76
			c11.42-0.32,22.32-3.29,32.42-8.7c15.91-8.52,24.18-21.94,25.17-39.94c0.89-16.06-1.9-31.63-9.27-45.72
			c-11.01-21.03-21.71-42.49-35.28-61.85c-55.26-78.79-118.58-150.87-186.4-219.05c-19.06-19.16-38.6-37.88-57.04-57.61
			c-9.29-9.94-17.22-21.31-24.66-32.76c-9.79-15.05-10.13-31.23-1.72-47.14c4.89-9.25,10.17-18.35,16.01-27.02
			c16.46-24.4,33.52-48.41,49.97-72.82c54.55-80.94,107.75-162.73,154.92-248.27c16.94-30.72,33.17-61.84,45.14-94.91
			c6.03-16.66,11.85-33.5,12-51.55c0.17-20.93-9.17-34.76-29.29-40.57c-10.7-3.09-22.18-4.76-33.32-4.84
			c-64.55-0.44-129.11-0.37-193.66-0.05c-9.58,0.05-19.34,1.45-28.67,3.68c-28.28,6.78-45.51,26.11-56.47,51.93
			c-24.6,57.94-52.53,114.26-82.92,169.35c-36.68,66.48-77.19,130.47-124.34,190.13c-22.34,28.27-46.38,54.91-75.14,76.74
			c-9.47,7.19-20.32,13.43-31.5,17.33c-19.13,6.67-31.82-0.18-39.59-18.86c-4.41-10.6-5.59-21.73-5.57-33.14
			C1534.5,1328.77,1534.45,1265.03,1534.45,1201.29z"/>
		<path class="st0" d="M1534.45,1201.29c0,63.74,0.05,127.48-0.05,191.22c-0.02,11.41,1.16,22.55,5.57,33.14
			c7.77,18.67,20.46,25.53,39.59,18.86c11.19-3.9,22.03-10.14,31.5-17.33c28.76-21.83,52.8-48.48,75.14-76.74
			c47.15-59.66,87.66-123.65,124.34-190.13c30.4-55.09,58.33-111.41,82.92-169.35c10.96-25.82,28.19-45.15,56.47-51.93
			c9.33-2.24,19.1-3.64,28.67-3.68c64.55-0.32,129.11-0.39,193.66,0.05c11.14,0.08,22.62,1.75,33.32,4.84
			c20.12,5.81,29.46,19.64,29.29,40.57c-0.15,18.05-5.97,34.89-12,51.55c-11.97,33.08-28.2,64.19-45.14,94.91
			c-47.17,85.54-100.38,167.33-154.92,248.27c-16.45,24.41-33.51,48.42-49.97,72.82c-5.85,8.67-11.12,17.77-16.01,27.02
			c-8.41,15.91-8.06,32.08,1.72,47.14c7.44,11.44,15.38,22.82,24.66,32.76c18.44,19.74,37.98,38.45,57.04,57.61
			c67.82,68.18,131.14,140.25,186.4,219.05c13.57,19.36,24.28,40.82,35.28,61.85c7.37,14.09,10.16,29.66,9.27,45.72
			c-0.99,18-9.26,31.42-25.17,39.94c-10.1,5.41-21,8.38-32.42,8.7c-18.14,0.51-36.3,0.73-54.45,0.76
			c-49.22,0.1-98.45-0.58-147.66,0.25c-32.61,0.55-60.43-10.09-83.12-32.69c-24.55-24.47-48.13-49.94-71.51-75.54
			c-46.82-51.28-94.47-101.66-148.64-145.41c-21.36-17.25-43.4-33.52-67.72-46.47c-21.42-11.41-43.8-18.05-68.48-15.65
			c-20.36,1.98-31.04,10.49-34.83,30.56c-1.78,9.44-2.6,19.19-2.64,28.81c-0.24,57.29-0.04,114.57-0.2,171.86
			c-0.03,9.65-0.66,19.34-1.8,28.92c-1.98,16.66-9.91,30.23-25.18,37.53c-11.13,5.33-23.14,9.71-35.23,12
			c-41.12,7.79-82.74,7.49-124.18,3.52c-130.34-12.5-244.08-65.63-347.08-144.06c-72.11-54.91-133.62-120.22-186.58-193.63
			c-87.02-120.62-164.56-246.9-227.02-382.1c-32.32-69.98-61.03-141.35-79.79-216.31c-4.49-17.93-8.12-36.23-10.03-54.58
			c-1.05-10.05,0.82-21.05,4.03-30.74c5.66-17.1,20.31-24.32,36.94-27.39c8.68-1.6,17.62-2.46,26.44-2.49
			c63.75-0.2,127.49-0.12,191.24-0.1c3.63,0,7.26,0.11,10.88,0.32c30.23,1.69,51.94,16.24,64.21,43.85
			c6.86,15.44,12.83,31.31,18.55,47.21c45.29,125.99,101.42,246.73,173.99,359.51c22.72,35.32,47.22,69.35,76.12,99.99
			c12.75,13.52,26.21,26.29,42.46,35.69c9.29,5.38,19.02,8.27,30.02,6.93c10.75-1.31,18.47-6.59,21.77-16.56
			c3.01-9.08,5.16-18.65,6.12-28.16c1.18-11.6,0.93-23.36,0.94-35.05c0.06-90.77,0.05-181.54,0.03-272.31
			c-0.02-55.55-15.42-105.69-52.03-148.46c-5.24-6.12-10.08-12.61-14.67-19.23c-10.37-14.95-13.72-31.05-5.21-47.88
			c8.65-17.11,23.89-24.33,42.35-25.77c2.41-0.19,4.84-0.08,7.26-0.08c98.85,0,197.7-0.05,296.54,0.09
			c7.2,0.01,14.5,0.89,21.59,2.22c15.08,2.83,25.25,11.85,30.73,26.15c5.58,14.57,6.56,29.88,6.6,45.21
			C1534.53,1073,1534.45,1137.15,1534.45,1201.29z"/>
	</g>
</g>
</svg>
