<?xml version="1.0" encoding="utf-8"?>
<!-- Generator: Adobe Illustrator 26.2.1, SVG Export Plug-In . SVG Version: 6.00 Build 0)  -->
<svg version="1.1" id="Layer_1" xmlns="http://www.w3.org/2000/svg" xmlns:xlink="http://www.w3.org/1999/xlink" x="0px" y="0px"
	 viewBox="0 0 2000 2000" style="enable-background:new 0 0 2000 2000;" xml:space="preserve">
<style type="text/css">
	.st0{fill:#F8C3D9;}
</style>
<g>
	<path class="st0" d="M1676.09,1322.11c0,17.36-14.07,31.41-31.41,31.41c-17.34,0-31.41-14.05-31.41-31.41v-123.03
		c0-17.34,14.07-31.41,31.41-31.41c17.34,0,31.41,14.07,31.41,31.41V1322.11L1676.09,1322.11z M1401.76,1322.11
		c0,17.36-14.07,31.41-31.41,31.41s-31.41-14.05-31.41-31.41v-123.03c0-17.34,14.07-31.41,31.41-31.41s31.41,14.07,31.41,31.41
		V1322.11L1401.76,1322.11z M999.7,1005.9c-43.37,0-78.53-35.16-78.53-78.53c0-43.37,35.16-78.53,78.53-78.53
		c43.37,0,78.53,35.16,78.53,78.53C1078.23,970.74,1043.07,1005.9,999.7,1005.9L999.7,1005.9z M649.98,1317.92
		c0,17.36-14.07,31.41-31.41,31.41c-17.34,0-31.41-14.05-31.41-31.41V1194.9c0-17.34,14.07-31.41,31.41-31.41
		c17.34,0,31.41,14.07,31.41,31.41V1317.92L649.98,1317.92z M375.66,1317.92c0,17.36-14.07,31.41-31.41,31.41
		c-17.34,0-31.41-14.05-31.41-31.41V1194.9c0-17.34,14.07-31.41,31.41-31.41c17.34,0,31.41,14.07,31.41,31.41V1317.92
		L375.66,1317.92z M1714.41,875.23l-67.83,52.14l-70.11-52.48c-5.67-4.25-13.76-0.21-13.76,6.89v123.07h-73.17v-122.8
		c0-7.14-8.19-11.18-13.86-6.82l-67.81,52.14l-70.11-52.48c-5.68-4.25-13.76-0.21-13.76,6.89v123.07h-98.34V680.14
		c0-14.99-18.97-21.5-28.19-9.67l-29.25,37.61l-51.81,66.62l-99.72-124.83c-6.37-7.96-18.49-7.89-24.75,0.15L894.97,774.7
		l-53.21-66.62l-30.93-38.72c-9.3-11.64-28.04-5.07-28.04,9.82v325.67h-92.14V881.22c0-6.78-7.81-10.64-13.19-6.49l-68.48,52.65
		l-70.76-52.98c-5.4-4.04-13.11-0.19-13.11,6.58v123.89h-87.83V881.22c0-6.78-7.81-10.64-13.21-6.49l-68.46,52.65l-70.76-52.98
		c-5.42-4.04-13.11-0.19-13.11,6.58v775.72l531.88,297.41v-627.31c0-110.67,90.03-200.7,200.7-200.7s200.7,90.02,200.7,200.7v627.31
		l523.23-297.41V882.06C1728.25,874.92,1720.07,870.88,1714.41,875.23L1714.41,875.23z"/>
	<path class="st0" d="M894.32,673.22l48.04-61.78c14.99-19.27,37.61-30.32,62.03-30.32c24.02,0,46.41,10.76,61.4,29.53l49.97,62.57
		l25.19-32.37l-125.62-309.42l55.14,40.06l-27.03-83.19l70.76-51.41h-87.47l-27.03-83.19l-27.03,83.19H885.2l70.76,51.41
		l-27.03,83.19l56.5-41.05L867.71,639.9L894.32,673.22L894.32,673.22z"/>
	<path class="st0" d="M1004.32,1188.91c-76.02,0-137.88,61.84-137.88,137.87v623.77h275.75v-623.77
		C1142.2,1250.75,1080.34,1188.91,1004.32,1188.91L1004.32,1188.91z"/>
</g>
<path class="st0" d="M2000,1000c0,552.28-447.72,1000-1000,1000S0,1552.28,0,1000S447.72,0,1000,0S2000,447.72,2000,1000z
	 M1000,77.84C490.71,77.84,77.84,490.71,77.84,1000s412.86,922.16,922.16,922.16s922.16-412.86,922.16-922.16
	S1509.29,77.84,1000,77.84z"/>
</svg>
