<?xml version="1.0" encoding="utf-8"?>
<!-- Generator: Adobe Illustrator 26.2.1, SVG Export Plug-In . SVG Version: 6.00 Build 0)  -->
<svg version="1.1" id="Layer_1" xmlns="http://www.w3.org/2000/svg" xmlns:xlink="http://www.w3.org/1999/xlink" x="0px" y="0px"
	 viewBox="0 0 2000 2000" style="enable-background:new 0 0 2000 2000;" xml:space="preserve">
<style type="text/css">
	.st0{fill:#F8C3D9;}
</style>
<path class="st0" d="M1000.15,0C447.87,0,0.15,447.72,0.15,1000s447.72,1000,1000,1000s1000-447.72,1000-1000S1552.44,0,1000.15,0z
	 M1293.73,123.44c-0.39-0.13-0.77-0.27-1.16-0.4c0.38,0.13,0.77,0.25,1.15,0.38L1293.73,123.44z M1246.18,108.91
	c-0.12-0.03-0.23-0.06-0.35-0.09l0,0C1245.95,108.84,1246.06,108.88,1246.18,108.91z M640.45,1851.56
	c-110.04-46.54-208.88-113.19-293.78-198.08c-84.9-84.9-151.54-183.74-198.08-293.78C100.42,1245.81,76,1124.79,76,1000
	s24.42-245.81,72.59-359.7c15.49-36.63,33.22-72,53.1-106.04l1.57,0.22c25.78,24.14,45.06,42.5,49.38,47.36
	c15.97,17.96,9.98,21.96,5.99,83.83c-3.99,61.88,5.99,79.84,5.99,79.84s23.95,31.94,37.92,51.9c13.97,19.96,13.97,51.9,21.96,89.82
	c7.98,37.92,61.88,117.76,65.87,121.76c3.99,3.99,101.8,91.82,121.76,97.8c19.96,5.99,11.98-7.98,11.98-13.97
	s-33.93-45.91-65.87-83.83c-31.94-37.92-25.95-39.92-25.95-39.92s11.98,2,47.9,7.98s35.93,29.94,49.9,55.89
	c13.97,25.95,21.96,75.85,43.91,97.8c21.96,21.96,57.88,35.93,93.81,39.92c35.93,3.99,49.9-7.98,55.89-2s39.92,45.91,51.9,47.9
	c11.98,2,33.93,3.99,43.91,9.98s5.99,11.98,27.94,39.92c21.96,27.94,65.87,19.96,81.84,19.96c15.97,0,15.97,7.98,25.95,23.95
	c9.98,15.97,2,35.93,3.99,69.86c2,33.93-17.96,71.86-23.95,79.84c-5.99,7.98-5.99,11.98-2,45.91s13.97,23.95,35.93,43.91
	c21.96,19.96,25.95,11.98,49.9,53.89c23.95,41.92,23.95,59.88,23.95,85.83s-5.99,47.9-13.97,79.84
	c-3.48,13.93-9.62,35.07-15.77,56.47l0,0c-6.64,23.12-13.29,46.53-16.61,61.49l0,0.01c0,0-10.4,23.46,5.78,36.71
	c-0.78,0-1.56,0.01-2.34,0.01C875.36,1924.15,754.34,1899.73,640.45,1851.56z M1653.62,1653.47
	c-84.9,84.9-183.74,151.54-293.78,198.08c-26.49,11.2-53.37,21.1-80.58,29.73c5.88-6.61,14.26-18.09,24.13-35.85
	c6.74-11.78,12.92-24.78,19.11-34.06c11.98-17.96,53.89-51.9,75.85-61.88c21.96-9.98,51.9-27.94,55.89-51.9
	c3.99-23.95,11.98-55.89,29.94-81.84s53.89-57.88,59.88-79.84c5.99-21.96-15.97-47.9-47.9-59.88
	c-31.94-11.98-39.92-19.96-77.84-35.93s-73.85-71.86-93.81-95.81c-19.96-23.95-33.93-7.98-57.88-19.96
	c-23.95-11.98-23.95-49.9-27.94-69.86c-3.99-19.96-61.88-15.97-97.8-9.98c-35.93,5.99-67.86,7.98-105.79,9.98
	c-37.92,2-77.84-13.97-101.8-27.94s-23.95-39.92-23.95-39.92l-3.99-15.97c0,0-53.89-3.99-85.83-7.98
	c-31.94-3.99-25.95-31.94-25.95-35.93c0-3.99,3.99-41.92-5.99-43.91s-69.86,11.98-87.82,9.98c-17.96-2-31.94-27.94-37.92-45.91
	c-5.99-17.96,3.99-35.93,11.98-47.9c7.98-11.98,73.85-37.92,107.78-43.91c33.93-5.99,67.86,29.94,73.85,71.86
	c5.99,41.92,45.91,49.9,75.85,47.9c29.94-2,47.9-39.92,45.91-65.87c-2-25.95-55.89-53.89-51.9-73.85
	c3.99-19.96,21.96-7.98,49.9-11.98c27.94-3.99,5.99-41.92,0-57.88s-3.99-43.91,5.99-61.88c9.98-17.96,59.88-11.98,81.84-21.96
	s23.95-63.87,25.95-71.86c2-7.98,23.95-23.95,25.95-25.95c2-2,31.94,0,51.9,15.97c19.96,15.97,27.94,7.98,39.92,0
	c11.98-7.98,3.99-35.93-2-47.9c-5.99-11.98-37.92,3.99-51.9-2c-13.97-5.99-3.99-29.94-5.99-49.9c-2-19.96-19.96-5.99-43.91-13.97
	c-23.95-7.98,5.99-37.92,11.98-45.91s19.96-2,35.93,0c15.97,2,41.92-2,55.89-5.99s25.95,3.99,27.94,13.97
	c2,9.98-13.97,17.96-33.93,29.94c-19.96,11.98-7.98,15.97-5.99,35.93s11.98,17.96,27.94,21.96c15.97,3.99,19.96,5.99,39.92,15.97
	s27.94,9.98,41.92,5.99s13.97-5.99,15.97-11.98c2-5.99-3.99-23.95-15.97-23.95s-25.95-23.95-31.94-29.94
	c-5.99-5.99,13.97-21.96,17.96-39.92c3.99-17.96,0-13.97-5.99-25.95c-5.99-11.98-5.99-29.94-7.98-43.91
	c-2-13.97-13.97-25.95-33.93-31.94c-19.96-5.99-29.94-3.99-41.92-3.99c-11.98,0-31.94-51.9-37.92-71.86s-13.97-41.92-25.95-45.91
	c-11.98-3.99-17.96,5.99-21.96,19.96c-3.99,13.97-17.96,7.98-23.95,0c-5.99-7.98-17.96-15.97-25.95-19.96
	c-7.98-3.99-21.96-31.94-27.94-35.93c-5.99-3.99-37.92-9.98-51.9-7.98c-13.97,2-7.98,11.98-21.96,21.96
	c-13.97,9.98-13.97,25.95-13.97,39.92c0,13.97,2,5.99,7.98,13.97c5.99,7.98,2,9.98-2,23.95s-5.99,13.97-13.97,27.94
	c-7.98,13.97,0,21.96,5.99,31.94s3.99,9.98-2,19.96c-5.99,9.98-39.92,37.92-47.9,49.9c-7.98,11.98-15.97,45.91-15.97,45.91
	s-9.98-51.9-7.98-63.87c2-11.98,2-25.95,2-37.92s-25.95-33.93-37.92-39.92c-11.98-5.99-65.87-5.99-75.85-7.98
	c-9.98-2-59.88-31.94-63.87-41.92c-3.99-9.98,9.98-19.96,21.96-29.94c11.98-9.98,19.96-9.98,29.94-23.95
	c9.98-13.97,5.99-17.96,9.98-29.94c3.99-11.98,31.94-19.96,43.91-25.95c11.98-5.99,21.96-15.97,25.95-25.95s2-19.96-2-29.94
	c-3.99-9.98,5.99-17.96,13.97-19.96c7.98-2,7.98,11.98,7.98,19.96c0,7.98,3.99,23.95,5.99,39.92c2,15.97,5.99,17.96,19.96,21.96
	c13.97,3.99,15.97-7.98,19.96-11.98c3.99-3.99,11.98-15.97,13.97-25.95c2-9.98-9.98-15.97-21.96-25.95s-17.96-23.95-19.96-33.93
	s11.98-7.98,29.94,0c17.96,7.98,17.96-13.97,25.95-23.95c7.98-9.98-3.99-19.96,15.97-21.96c19.96-2,29.94,15.97,43.91,15.97
	c13.97,0,25.95-15.97,33.93-5.99s-9.98,25.95-21.96,31.94c-11.98,5.99,0,37.92,0,49.9c0,11.98,35.93,27.94,55.89,35.93
	c19.96,7.98,19.96,15.97,27.94,19.96c7.98,3.99,39.92,15.97,45.91,15.97c5.99,0,5.99-3.99,5.99-15.97s3.99-25.95,13.97-27.94
	c9.98-2,5.99-13.97,3.99-21.96c-2-7.98-41.92-33.93-33.93-43.91s15.97,3.99,45.91,13.97c29.94,9.98,13.97-3.99,17.96-21.96
	c3.99-17.96,5.99-2,27.94-5.99c21.96-3.99,5.99-9.98,15.97-21.96c9.98-11.98,15.97-7.98,21.96-19.96c0.73-1.46,1.22-4.92,1.52-9.85
	c15.57,4.29,31.03,9,46.38,14.12c-7.76,38.47-9.67,73.1-7.98,81.56c3.99,19.96,21.96,55.89,35.93,77.84
	c13.97,21.96,7.98,25.95,23.95,43.91c15.97,17.96,47.9,3.99,59.88,0c11.98-3.99,5.99-23.95,13.97-41.92
	c7.98-17.96,17.96-21.96,27.94-25.95c9.98-3.99,7.98,0,9.98-7.98c2-7.98,20.96-24.95,20.96-24.95l10.53-9.59l1.43-0.38
	c59.31,37.03,114.33,80.8,164.47,130.95c84.9,84.9,151.54,183.74,198.08,293.78c13.18,31.16,24.57,62.87,34.18,95.03
	c0,0,0,0.01-0.01,0.01c-0.07-0.22-0.13-0.44-0.19-0.66c-3.7,0.37-6.54,0.66-8.3,0.85c-17.96,2-29.94-3.99-41.92,5.99
	c-11.98,9.98-23.95,19.96-41.92,29.94s-27.94,9.98-23.95,17.96c3.99,7.98,0,17.96,7.98,19.96c7.98,2,21.96,7.98,27.94,13.97
	c5.99,5.99,25.95,33.93,29.94,41.92c3.99,7.98,3.99,9.98,0,25.95c-3.99,15.97-7.98,17.96-13.97,33.93
	c-5.99,15.97-9.98,15.97-9.98,43.91c0,27.94,2,43.91-13.97,53.89c-15.97,9.98-31.94,9.98-37.92,25.95
	c-5.99,15.97-31.94,61.88-31.94,95.81s3.99,73.85,21.96,101.8c17.96,27.94,41.92,47.9,47.9,63.87c5.99,15.97-5.99,25.95,13.97,37.92
	c4.6,2.76,16.53,5.3,32.16,7.64l8.43,2.76c-0.14,0.33-0.27,0.66-0.41,0.99C1805.17,1469.74,1738.52,1568.58,1653.62,1653.47z"/>
</svg>
