<?xml version="1.0" encoding="utf-8"?>
<!-- Generator: Adobe Illustrator 26.2.1, SVG Export Plug-In . SVG Version: 6.00 Build 0)  -->
<svg version="1.1" id="Layer_1" xmlns="http://www.w3.org/2000/svg" xmlns:xlink="http://www.w3.org/1999/xlink" x="0px" y="0px"
	 viewBox="0 0 2000 2000" style="enable-background:new 0 0 2000 2000;" xml:space="preserve">
<style type="text/css">
	.st0{fill:#F8C3D9;}
</style>
<path class="st0" d="M2000.15,1000c0,552.28-447.72,1000-1000,1000s-1000-447.72-1000-1000S447.87,0,1000.15,0
	S2000.15,447.72,2000.15,1000z M1000.15,77.84C490.86,77.84,78,490.71,78,1000s412.86,922.16,922.16,922.16
	s922.16-412.86,922.16-922.16S1509.44,77.84,1000.15,77.84z"/>
<path class="st0" d="M622.08,903.63c-4.03,18.14-8.18,36.88-12.3,55.46H459.06c3.04-13.68,7.85-35.37,12.31-55.46H622.08z
	 M651.58,770.63H371.53c-4.42,19.94-9.22,41.58-12.3,55.46h280.06C646.11,795.3,650.83,774.01,651.58,770.63z M501.51,1036.64
	c-4.49,20.22-9.31,41.95-12.3,55.46h91.06c3.23-14.56,7.47-33.69,12.3-55.46H501.51z M1328.35,1020.55
	c0-61.99-50.44-112.43-112.43-112.43h-90.13v-281.8h465.77v465.78h-288.99C1318.67,1072.64,1328.35,1047.7,1328.35,1020.55z
	 M895.35,239.52c-95.54,0-172.99,77.45-172.99,172.99c0,95.54,77.45,172.99,172.99,172.99c95.54,0,172.99-77.45,172.99-172.99
	C1068.34,316.97,990.89,239.52,895.35,239.52z M834.02,1500.97v263.06c0,58.7,49.49,105.84,109.01,101.99
	c54.32-3.52,95.4-51.05,95.4-105.49v-332.07l-168.45-207.53l42.42-193.61l7.25,18.88c10.62,27.64,37.18,45.89,66.79,45.89h229.47
	c41.83,0,75.28-35.89,71.21-78.57c-3.55-37.2-36.91-64.52-74.28-64.52h-177.25l-84.47-221.99l-0.08-0.01
	c-18.02-47.46-66.22-81.41-120.93-81.41c-62.59,0-114.76,44.08-127.47,102.86c-0.46,2.11-54.51,246.47-86.28,390.04
	c-10.37,46.87,1.22,95.9,31.48,133.17L834.02,1500.97z M490.71,1858.52c12.75,5.26,25.95,7.75,38.93,7.75
	c40.16,0,78.26-23.83,94.53-63.27l109.05-364.3l-115.64-142.43c-11.54-14.21-20.61-29.8-27.67-46.11l-154.71,474.91
	C413.67,1777.25,438.53,1837,490.71,1858.52z"/>
</svg>
