<?xml version="1.0" encoding="UTF-8"?><svg id="a" xmlns="http://www.w3.org/2000/svg" viewBox="0 0 878.98 925.8"><defs><style>.b,.c{fill:#ffe200;}.c{fill-rule:evenodd;}</style></defs><path class="c" d="M379.2,582.15l17.88,12.32L658.08,6.16c.58-1.3,1.87-2.14,3.29-2.14h142.33c2.59,0,4.34,2.66,3.31,5.03l-292.13,674.28,13.15,8.21c92.69,57.88,172.78,79.97,237.26,79.97,43.83,0,80.48-9.57,108.52-21.96,2.41-1.07,5.17,.68,5.17,3.32v123.04c0,5.71-3.06,9.76-6.64,11.22-31.07,12.76-73.98,22.12-124.88,22.12-78.57,0-173.82-22.28-282.04-96.16l-13.96-9.53-10.4,13.33c-51.68,66.24-126.14,108.91-225.87,108.91-63.35,0-117.15-20.44-154.9-54.78C22.69,836.8,0,787.91,0,728.68c0-116.97,90.68-199.88,215.2-199.88,66.87,0,118.24,21.82,164,53.36Zm-46.43,145.92l10.83-15.24-15.64-10.25c-32.21-21.12-72.98-41.56-112.76-41.56-20.9,0-40.75,5.64-55.84,17.13-15.45,11.77-25.28,29.33-25.28,50.53s9.68,39.41,25.42,51.15c15.21,11.35,35.09,16.51,55.7,16.51,37.52,0,79.97-15.35,117.57-68.26Z"/><path class="b" d="M401.47,504.63c-.95,2.14-3.66,2.82-5.49,1.37-106.09-84.28-172.16-216.39-172.16-370.95,0-53.35,7.82-91.75,22.85-124.74,2.76-6.06,9.39-10.32,17.48-10.32h118.04c2.76,0,4.51,2.99,3.21,5.43-19.43,36.53-28.18,79.53-28.18,127.13,0,99.45,35.68,186.31,96.76,248.02,1.05,1.06,1.35,2.66,.75,4.02l-53.25,120.03Z"/></svg>