<?xml version="1.0" encoding="utf-8"?>
<!-- Generator: Adobe Illustrator 26.2.1, SVG Export Plug-In . SVG Version: 6.00 Build 0)  -->
<svg version="1.1" id="Слой_1" xmlns="http://www.w3.org/2000/svg" xmlns:xlink="http://www.w3.org/1999/xlink" x="0px" y="0px"
	 viewBox="0 0 2834.65 2834.65" style="enable-background:new 0 0 2834.65 2834.65;" xml:space="preserve">
<style type="text/css">
	.st0{fill:#595955;}
</style>
<g>
	<path class="st0" d="M2442.78,2752.81H391.86c-19.09,0-37.3-8.06-50.13-22.19c-12.84-14.13-19.12-33.02-17.29-52.03L490.82,948.78
		c3.34-34.73,32.52-61.25,67.42-61.25H2276.4c34.89,0,64.08,26.51,67.42,61.25l166.38,1729.81c1.83,19.01-4.45,37.9-17.29,52.03
		C2480.08,2744.75,2461.88,2752.81,2442.78,2752.81z M466.42,2617.35h1901.8L2214.87,1023H619.77L466.42,2617.35z"/>
	<path class="st0" d="M1084.82,1340.72H949.36v-790.2c0-258.03,209.93-467.96,467.96-467.96c258.03,0,467.96,209.92,467.96,467.96
		v779.94h-135.46V550.51c0-183.34-149.16-332.5-332.5-332.5c-183.34,0-332.5,149.16-332.5,332.5V1340.72z"/>
	<path class="st0" d="M1160.76,1345.85c0,79.35-64.33,143.67-143.67,143.67c-79.35,0-143.67-64.33-143.67-143.67
		s64.32-143.67,143.67-143.67C1096.44,1202.18,1160.76,1266.5,1160.76,1345.85z"/>
	<path class="st0" d="M1961.23,1345.85c0,79.35-64.33,143.67-143.67,143.67c-79.35,0-143.67-64.33-143.67-143.67
		s64.33-143.67,143.67-143.67C1896.9,1202.18,1961.23,1266.5,1961.23,1345.85z"/>
</g>
</svg>
