<?xml version="1.0" encoding="utf-8"?>
<!-- Generator: Adobe Illustrator 26.2.1, SVG Export Plug-In . SVG Version: 6.00 Build 0)  -->
<svg version="1.1" id="Слой_1" xmlns="http://www.w3.org/2000/svg" xmlns:xlink="http://www.w3.org/1999/xlink" x="0px" y="0px"
	 viewBox="0 0 2834.65 2834.65" style="enable-background:new 0 0 2834.65 2834.65;" xml:space="preserve">
<style type="text/css">
	.st0{fill:#F8CADC;}
</style>
<path class="st0" d="M1409.74,535.2c23.81-31.35,41.7-55.4,60.11-79.04c46.42-59.59,100.21-112.03,164.8-150.95
	c52.01-31.34,105.71-61.93,162.29-83.16c88.37-33.17,181.67-47.73,276.47-40.91c64.85,4.66,130.16,11.28,191.44,35.23
	c39.5,15.44,78.7,32.6,115.77,53.09c68.06,37.62,129.52,85.21,179.07,145.15c37.64,45.52,71.32,94.76,102.63,144.93
	c22.75,36.44,40.99,76.19,57.08,116.14c14.07,34.94,24.99,71.67,32.55,108.58c11.14,54.42,21.04,109.43,26.1,164.67
	c8.18,89.2,3.75,178.04-21.04,265.07c-10.58,37.15-17.12,75.57-29.42,112.09c-15.26,45.32-32.77,90.11-52.69,133.58
	c-18.29,39.91-38.66,79.32-62.49,116.12c-31.02,47.89-64.96,94.08-100.12,139.07c-82.96,106.16-188.82,188.82-288.6,277.73
	c-79.68,71.01-158.31,143.19-237.83,214.39c-61.67,55.22-124.25,109.42-185.96,164.6c-80.74,72.19-160.86,145.08-241.56,217.32
	c-42.09,37.67-85.06,74.34-127.2,111.96c-16.01,14.29-30.57,8.97-43.42-2.62c-58.57-52.8-116.37-106.46-174.79-159.44
	c-97.48-88.39-195.32-176.38-292.81-264.76c-84.87-76.94-169.48-154.17-254.18-231.29c-78.93-71.87-160.35-141.23-235.91-216.48
	c-55.08-54.86-105.42-115.23-152.28-177.36c-38.39-50.9-71.1-106.64-101.49-162.85c-22.22-41.11-37.64-86.07-54.09-130.05
	c-13.23-35.37-26.22-71.25-34.4-107.99C75,1190.6,63.51,1132.6,56.67,1074.25c-11.34-96.78,4.01-192.59,26.51-286.03
	c17.25-71.67,43.93-140.89,79.01-207.13c57.2-108,132.89-199.52,231.49-270.35c43.39-31.16,93.74-52.89,141.73-77.34
	c74.9-38.16,157-48.68,238.97-52.41c71.9-3.27,144.4,2.53,213.42,26.96c46.44,16.44,93.92,31.4,137.79,53.3
	c61.67,30.79,117.88,71.38,164.6,122.53c38.48,42.13,73.39,87.52,109.57,131.71C1403.64,520.22,1405.49,526.62,1409.74,535.2z"/>
</svg>
