<?xml version="1.0" encoding="utf-8"?>
<!-- Generator: Adobe Illustrator 26.2.1, SVG Export Plug-In . SVG Version: 6.00 Build 0)  -->
<svg version="1.1" id="Слой_1" xmlns="http://www.w3.org/2000/svg" xmlns:xlink="http://www.w3.org/1999/xlink" x="0px" y="0px"
	 viewBox="0 0 2834.65 2834.65" style="enable-background:new 0 0 2834.65 2834.65;" xml:space="preserve">
<style type="text/css">
	.st0{fill:#595955;}
</style>
<path class="st0" d="M1328.68,94.36c101.35-8.04,202.85-3.87,300.89,14.12c92.72,17.02,183.78,44.34,270.56,81.16
	c459.98,195.15,734.71,539.06,822.17,1031.53c27.01,152.09,20.09,310.84-11.68,461.7c-68.78,326.63-234.43,593.81-502.59,792.93
	c-295.4,219.35-628.23,300.21-992.11,246.69c-256.41-37.71-482.38-144.64-675.1-317.52C278,2169.21,131.12,1874.12,100.54,1521.78
	c-15.74-181.37,6.22-358.4,65.03-530.29C262.27,708.83,435.93,484.12,684,318.12C870.38,193.4,1099.17,112.57,1328.68,94.36z
	 M460.99,638.72c-171.19,210.81-265.04,456.47-278.01,734.9c177.13,0,351.13,0,521.61,0c10.06-103.66,16.09-205.78,30.85-306.62
	c14.71-100.59,38.16-199.89,57.14-296.51C684.37,727.49,574.03,683.64,460.99,638.72z M2369.11,2200.18
	c171.45-212.03,265.28-456.96,277.85-734.87c-176.25,0-350.25,0-527.36,0c-1.67,206.59-31.97,408.32-86.37,601.19
	C2146.03,2111.4,2255.62,2155.01,2369.11,2200.18z M797.24,2066.34c-55.77-193.69-83.85-395.11-87.7-601.07
	c-176,0-349.96,0-526.62,0c13.16,278.46,106.86,523.85,278.24,734.82C574.49,2154.99,684.08,2111.38,797.24,2066.34z
	 M2030.24,1374.02c-2.79-199.98-31.15-394-84.54-578.19c-162.84,19.42-323.18,38.55-484.57,57.8c0,169.58,0,344.31,0,520.39
	C1650.82,1374.02,1838.64,1374.02,2030.24,1374.02z M1459.24,1464.8c0,11.94,0,21.25,0,30.56c0,155.55,0.77,311.11-0.73,466.65
	c-0.26,27.06,8.83,31.77,33.18,33.76c108.53,8.87,216.97,19.17,325.2,31.14c42.24,4.67,83.85,15.09,126.8,23.09
	c55.59-192.52,84.06-386.35,86.43-585.2C1839.22,1464.8,1651.2,1464.8,1459.24,1464.8z M886.74,787.46
	c-55.03,192.41-84.98,386.23-86.24,585.72c190.42,0,379.49,0,568.13,0c0-177.03,0-351.85,0-527.71
	C1206.08,842.13,1047.05,823.77,886.74,787.46z M1368.34,1994.05c0-179.49,0-354.32,0-528.04c-190.77,0-379.42,0-568.04,0
	c1.92,199.59,31.12,393.02,86.37,584.78C1046.04,2016.23,1205.57,1995.31,1368.34,1994.05z M1461.84,2082.81
	c0,190.38,0,376.78,0,563.24c41.61-1.57,97.1-22.03,144.65-54.81c161.47-111.34,240.65-278.58,309.81-454.49
	C1765.38,2103.01,1615.13,2085.29,1461.84,2082.81z M1914.07,702.34c-2.5-8.14-3.8-14.7-6.46-20.66
	c-25.47-57.12-48.27-115.66-77.45-170.83c-48.49-91.66-108.11-175.57-191.21-240.13c-52.66-40.92-110.22-70.95-177.35-80.16
	c0,189.85,0,377.44,0,565.61C1615.08,752.74,1764.62,736.87,1914.07,702.34z M1369.46,189.69
	c-97.2,16.48-172.24,66.87-237.11,134.43c-81.98,85.39-138.27,187.23-185.01,294.82c-11.72,26.99-21.64,54.77-32.5,82.49
	c115.89,30.82,393.31,62.41,454.61,52.06C1369.46,566.68,1369.46,379.7,1369.46,189.69z M1368.73,2648.36c0-190.03,0-376.9,0-565.62
	c-153.87,2.7-304.05,20.17-454.54,54c13.03,32.66,24.22,64.11,37.91,94.44c52.6,116.51,115,226.71,211.43,313.61
	C1221.88,2597.36,1287.51,2636.24,1368.73,2648.36z M2309.49,569.68c-167.19-171.37-357.65-283.11-586.41-344.45
	c133.97,132.57,225.34,283.61,283.13,461.4C2108.15,647.33,2206.16,609.53,2309.49,569.68z M1095.45,232.03
	c-220.9,56.98-409.06,168.4-570,333.33c97.46,50.28,195.92,88.26,300.83,115.69C881.4,510.27,971.62,361.52,1095.45,232.03z
	 M1092.21,2609.73c-51.9-69.89-109.75-137.34-155.39-212.21c-45.47-74.57-78.69-156.61-117.87-236.56
	c-51.93,6.93-262.47,86.57-290.41,115.84C687,2439.89,875.98,2550.51,1092.21,2609.73z M2038.24,776.4
	c18.98,96.62,42.43,195.92,57.14,296.51c14.75,100.84,20.79,202.96,30.85,306.62c170.48,0,344.48,0,521.61,0
	c-12.97-278.42-106.81-524.08-278.01-734.9C2256.79,689.55,2146.44,733.4,2038.24,776.4z M2290.67,2276.8
	c-27.94-29.27-238.48-108.91-290.41-115.84c-39.18,79.96-72.41,161.99-117.87,236.56c-45.65,74.88-103.49,142.32-155.39,212.21
	C1943.23,2550.51,2132.21,2439.89,2290.67,2276.8z"/>
</svg>
