<?xml version="1.0" encoding="utf-8"?>
<!-- Generator: Adobe Illustrator 24.0.1, SVG Export Plug-In . SVG Version: 6.00 Build 0)  -->
<svg version="1.1" id="Слой_1" xmlns="http://www.w3.org/2000/svg" xmlns:xlink="http://www.w3.org/1999/xlink" x="0px" y="0px"
	 viewBox="0 0 2672.1 1203.31" style="enable-background:new 0 0 2672.1 1203.31;" xml:space="preserve">
<style type="text/css">
	.st0{fill:#FFE103;}
</style>
<path class="st0" d="M176.81,526.56h100.37V291.07L458.62,11.58h-118.9L229.31,190.7L118.9,11.58H0l176.81,279.49V526.56z
	 M801.3,11.58H515.63v514.98H801.3v-86.47H616V299.57h177.58v-86.47H616V98.05h185.3V11.58z M898.65,11.58v514.98h259.42v-86.47
	H999.02V11.58H898.65z M1227.39,11.58v514.98h259.42v-86.47h-159.05V11.58H1227.39z M1767.68,0
	c-162.14,0-274.86,112.72-274.86,269.46s112.72,268.69,274.86,268.69s274.86-111.95,274.86-268.69S1929.81,0,1767.68,0z
	 M1767.68,447.03c-100.37,0-171.4-73.35-171.4-177.58c0-104.23,71.03-178.35,171.4-178.35s171.4,74.12,171.4,178.35
	C1939.08,373.69,1868.05,447.03,1767.68,447.03z M2670.72,12.6h-89.09v363.2c0,45.23-26.04,74.69-69.9,74.69
	c-37.69,0-55.51-19.19-71.27-45.23l-19.19-32.21l49.34-100.05c26.73-54.14,38.37-100.74,38.37-139.8
	c0-84.97-56.19-131.57-136.37-131.57c-79.49,0-138.43,47.97-138.43,131.57c0,39.06,13.02,84.97,40.43,139.8
	c15.08,30.84,32.89,65.79,50.71,99.37l-31.52,61.67L2112.22,12.6h-99.36l224.77,513.96h108.96l30.15-61.68
	c29.47,44.55,71.96,72.64,135,72.64c107.59,0,161.04-72.64,160.36-168.58L2670.72,12.6z M2372.63,277.8l-15.76-33.58
	c-15.08-32.21-29.47-74.7-29.47-108.96c0-26.73,16.45-47.97,44.55-47.97c27.41,0,45.23,20.56,45.23,47.97
	c0,34.95-14.39,78.12-28.78,108.96L2372.63,277.8z M662.41,988.13c-66.47,0-116.5,44.55-116.5,108.27
	c0,63.73,49.34,106.9,116.5,106.9c52.76,0,92.51-22.61,119.92-57.56c55.51,37.69,104.85,49.34,145.96,49.34
	c31.52,0,57.57-6.85,74.7-15.76v-89.09c-13.02,8.91-35.64,18.5-65.79,18.5c-30.15,0-68.53-10.28-113.76-38.37l149.39-391.98h-94.57
	l-128.84,337.84C725.45,999.78,698.04,988.13,662.41,988.13z M662.41,1121.07c-17.82,0-31.53-8.91-31.53-24.67
	c0-15.08,13.71-24.67,31.53-24.67c17.13,0,35.63,8.91,51.39,19.19C696.67,1114.91,678.17,1121.07,662.41,1121.07z M1075.4,677.37
	v514.98h100.37V677.37H1075.4z M1355.07,1192.34V848l313.46,344.35h69.49V677.37h-100.37v343.57l-313.46-343.57h-69.49v514.98
	H1355.07z M2110.41,677.37h-285.67v514.98h285.67v-86.47h-185.3V965.35h177.58v-86.47h-177.58V763.84h185.3V677.37z"/>
</svg>
