<?xml version="1.0" encoding="UTF-8" standalone="no"?>
<svg
   xmlns:dc="http://purl.org/dc/elements/1.1/"
   xmlns:cc="http://creativecommons.org/ns#"
   xmlns:rdf="http://www.w3.org/1999/02/22-rdf-syntax-ns#"
   xmlns:svg="http://www.w3.org/2000/svg"
   xmlns="http://www.w3.org/2000/svg"
   viewBox="0 0 3779.5332 3779.5332"
   height="3779.5332"
   width="3779.5332"
   xml:space="preserve"
   id="svg2"
   version="1.1"><metadata
     id="metadata8"><rdf:RDF><cc:Work
         rdf:about=""><dc:format>image/svg+xml</dc:format><dc:type
           rdf:resource="http://purl.org/dc/dcmitype/StillImage" /></cc:Work></rdf:RDF></metadata><defs
     id="defs6"><clipPath
       id="clipPath18"
       clipPathUnits="userSpaceOnUse"><path
         id="path16"
         d="M 0,2834.646 H 2834.646 V 0 H 0 Z" /></clipPath></defs><g
     transform="matrix(1.3333333,0,0,-1.3333333,0,3779.5333)"
     id="g10"><g
       id="g12"><g
         clip-path="url(#clipPath18)"
         id="g14"><g
           transform="translate(1123.1298,740.6896)"
           id="g20"><path
             id="path22"
             style="fill:#ffe200;fill-opacity:1;fill-rule:evenodd;stroke:none"
             d="m 0,0 29.889,42.063 -43.156,28.294 c -88.899,58.288 -201.401,114.707 -311.196,114.707 -57.673,0 -112.467,-15.559 -154.105,-47.272 -42.645,-32.48 -69.754,-80.936 -69.754,-139.452 0,-59.929 26.722,-108.762 70.14,-141.172 41.985,-31.336 96.847,-45.553 153.719,-45.553 C -220.93,-188.385 -103.76,-146.033 0,0 m 128.135,402.707 49.341,-34.01 720.323,1623.617 c 1.591,3.594 5.15,5.91 9.087,5.91 h 392.805 c 7.158,0 11.97,-7.329 9.126,-13.894 L 502.598,123.465 538.885,100.808 c 255.799,-159.742 476.822,-220.685 654.788,-220.685 120.95,0 222.097,26.405 299.482,60.605 6.661,2.952 14.257,-1.879 14.257,-9.166 v -339.548 c 0,-15.758 -8.45,-26.922 -18.323,-30.978 -85.756,-35.224 -204.172,-61.042 -344.627,-61.042 -216.828,0 -479.706,61.499 -778.373,265.373 l -38.524,26.295 -28.692,-36.774 C 156.24,-427.929 -49.235,-545.678 -324.463,-545.678 c -174.836,0 -323.293,56.409 -427.48,151.193 -103.801,94.436 -166.411,229.344 -166.411,392.825 0,322.806 250.265,551.633 593.891,551.633 184.549,0 326.327,-60.217 452.598,-147.266" /></g></g></g></g></svg>